<svg id="cc_RGB.svg" xmlns="http://www.w3.org/2000/svg" xmlns:xlink="http://www.w3.org/1999/xlink" viewBox="0 0 167.24 163.06"><defs><style>.cls-1{fill:url(#radial-gradient);}.cls-2{fill:url(#linear-gradient);}.cls-3{fill:url(#linear-gradient-2);}.cls-4{fill:url(#linear-gradient-3);}</style><radialGradient id="radial-gradient" cx="51.29" cy="-512.47" r="383.64" gradientTransform="translate(29.53 344.56) scale(0.7)" gradientUnits="userSpaceOnUse"><stop offset="0" stop-color="#ec202b"/><stop offset="0.15" stop-color="#e2202a"/><stop offset="0.4" stop-color="#c51e26"/><stop offset="0.73" stop-color="#981c20"/><stop offset="1" stop-color="#6d1a1b"/></radialGradient><linearGradient id="linear-gradient" x1="427.4" y1="-98.87" x2="845.33" y2="-98.87" gradientTransform="matrix(0.21, 0, 0, -0.21, -33.65, 61.26)" gradientUnits="userSpaceOnUse"><stop offset="0.14" stop-color="#fff"/><stop offset="1" stop-color="#ebedeb"/></linearGradient><linearGradient id="linear-gradient-2" x1="305.23" y1="-134.07" x2="634.9" y2="-134.07" xlink:href="#linear-gradient"/><linearGradient id="linear-gradient-3" x1="263.38" y1="-99.82" x2="887.33" y2="-99.82" xlink:href="#linear-gradient"/></defs><title>Adobe_Creative_Cloud</title><rect id="tile" class="cls-1" width="167.24" height="163.06"/><path class="cls-2" d="M101.54,42.76A36.62,36.62,0,0,0,75.11,53.2l-.19.16.23.11a42,42,0,0,1,6.32,3.87l.1.08.1-.08c4.62-3.65,10.32-7.52,19.87-7.52a31.09,31.09,0,0,1,23.12,10,31.9,31.9,0,0,1,.13,43.54,31.08,31.08,0,0,1-23.25,10.09A32.14,32.14,0,0,1,79,104.05L60.41,85.42a3.91,3.91,0,0,0-2.6-1,3.36,3.36,0,0,0-2.41,1,3.53,3.53,0,0,0,0,5l18.66,18.66a38.58,38.58,0,0,0,27.48,11.38,38.05,38.05,0,0,0,28.33-12.12,39.81,39.81,0,0,0,10.52-26.75C140.39,62.51,125.86,42.76,101.54,42.76Z"/><path class="cls-3" d="M69.65,113.32l0-.08H60.69A24.38,24.38,0,0,1,36.3,88.94c0-15.07,12.66-24.4,24.39-24.4,5.71,0,12.58,2.58,16,6C78.15,72,90.88,84.64,91,84.76a3.92,3.92,0,0,0,2.59,1.07A3.29,3.29,0,0,0,96,84.76a3.49,3.49,0,0,0,0-5c-.1-.08-9.39-9.29-14.24-14.15C76.14,60,67.12,57.48,60.69,57.48,48.49,57.48,41,63.23,37,68a33.29,33.29,0,0,0-7.77,20.9,31.81,31.81,0,0,0,8.71,21.64,30.87,30.87,0,0,0,22.77,9.68H77.25L76.9,120C74.24,117.62,70.68,114.29,69.65,113.32Z"/><path class="cls-4" d="M135.14,48a47.62,47.62,0,0,0-67.82.58A40.32,40.32,0,0,0,32.41,60a40.84,40.84,0,0,0,28.65,69.57h40.46c12.81,0,25.39-5.41,33.62-14A47.92,47.92,0,0,0,135.14,48Zm-1.44,66a45.22,45.22,0,0,1-32.18,13.42H61.06a38.65,38.65,0,0,1,0-77.29,40.13,40.13,0,0,1,6.44.52l.53.08.38-.41A45.59,45.59,0,1,1,133.7,114Z"/></svg>